<mxfile host="app.diagrams.net" modified="2024-01-02T14:10:03.749Z" agent="Mozilla/5.0 (Windows NT 10.0; Win64; x64) AppleWebKit/537.36 (KHTML, like Gecko) Chrome/120.0.0.0 Safari/537.36 Edg/120.0.0.0" etag="bOPwnd2bFO89vLGVrOYd" version="22.1.16" type="device" pages="2">
  <diagram id="yPxyJZ8AM_hMuL3Unpa9" name="ARCH">
    <mxGraphModel dx="1678" dy="893" grid="1" gridSize="13" guides="1" tooltips="1" connect="1" arrows="1" fold="1" page="1" pageScale="1" pageWidth="1100" pageHeight="850" background="none" math="0" shadow="0">
      <root>
        <mxCell id="0" />
        <mxCell id="1" parent="0" />
        <mxCell id="0PAZ69WQfDIx3NiE71XX-78" style="edgeStyle=orthogonalEdgeStyle;rounded=0;sketch=1;hachureGap=4;jiggle=2;curveFitting=1;orthogonalLoop=1;jettySize=auto;html=1;entryX=0.5;entryY=0;entryDx=0;entryDy=0;fontFamily=Architects Daughter;fontSource=https%3A%2F%2Ffonts.googleapis.com%2Fcss%3Ffamily%3DArchitects%2BDaughter;fontSize=16;" parent="1" source="0PAZ69WQfDIx3NiE71XX-35" target="0PAZ69WQfDIx3NiE71XX-52" edge="1">
          <mxGeometry relative="1" as="geometry" />
        </mxCell>
        <mxCell id="0PAZ69WQfDIx3NiE71XX-79" style="edgeStyle=orthogonalEdgeStyle;rounded=0;sketch=1;hachureGap=4;jiggle=2;curveFitting=1;orthogonalLoop=1;jettySize=auto;html=1;fontFamily=Architects Daughter;fontSource=https%3A%2F%2Ffonts.googleapis.com%2Fcss%3Ffamily%3DArchitects%2BDaughter;fontSize=16;" parent="1" source="0PAZ69WQfDIx3NiE71XX-35" target="0PAZ69WQfDIx3NiE71XX-53" edge="1">
          <mxGeometry relative="1" as="geometry" />
        </mxCell>
        <mxCell id="0PAZ69WQfDIx3NiE71XX-35" value="&lt;font style=&quot;font-size: 14px;&quot;&gt;SearchBar&lt;/font&gt;" style="rounded=1;whiteSpace=wrap;html=1;sketch=1;hachureGap=4;jiggle=2;curveFitting=1;fontFamily=Lucida Console;fontSize=14;" parent="1" vertex="1">
          <mxGeometry x="346.25" y="197" width="110" height="40" as="geometry" />
        </mxCell>
        <mxCell id="0PAZ69WQfDIx3NiE71XX-51" value="&lt;font style=&quot;font-size: 15px;&quot;&gt;COMPONENTS&lt;/font&gt;" style="text;html=1;strokeColor=#d6b656;fillColor=#fff2cc;align=center;verticalAlign=middle;whiteSpace=wrap;overflow=hidden;fontSize=20;fontFamily=Lucida Console;" parent="1" vertex="1">
          <mxGeometry x="81.25" y="117" width="380" height="40" as="geometry" />
        </mxCell>
        <mxCell id="0PAZ69WQfDIx3NiE71XX-96" style="edgeStyle=orthogonalEdgeStyle;rounded=0;hachureGap=4;orthogonalLoop=1;jettySize=auto;html=1;entryX=0;entryY=0.5;entryDx=0;entryDy=0;fontFamily=Architects Daughter;fontSource=https%3A%2F%2Ffonts.googleapis.com%2Fcss%3Ffamily%3DArchitects%2BDaughter;fontSize=16;flowAnimation=1;dashed=1;dashPattern=8 8;curved=1;" parent="1" source="0PAZ69WQfDIx3NiE71XX-52" target="0PAZ69WQfDIx3NiE71XX-88" edge="1">
          <mxGeometry relative="1" as="geometry" />
        </mxCell>
        <mxCell id="0PAZ69WQfDIx3NiE71XX-52" value="&lt;p style=&quot;line-height: 90%; font-size: 10px;&quot;&gt;&lt;font face=&quot;Lucida Console&quot; style=&quot;font-size: 10px;&quot;&gt;EL&lt;br&gt;Search&lt;/font&gt;&lt;/p&gt;" style="ellipse;whiteSpace=wrap;html=1;aspect=fixed;sketch=1;hachureGap=4;jiggle=2;curveFitting=1;fontFamily=Architects Daughter;fontSource=https%3A%2F%2Ffonts.googleapis.com%2Fcss%3Ffamily%3DArchitects%2BDaughter;fontSize=20;fillColor=#dae8fc;strokeColor=#6c8ebf;" parent="1" vertex="1">
          <mxGeometry x="346.25" y="287" width="51" height="51" as="geometry" />
        </mxCell>
        <mxCell id="0PAZ69WQfDIx3NiE71XX-92" style="edgeStyle=orthogonalEdgeStyle;rounded=0;hachureGap=4;orthogonalLoop=1;jettySize=auto;html=1;entryX=0;entryY=0.5;entryDx=0;entryDy=0;fontFamily=Architects Daughter;fontSource=https%3A%2F%2Ffonts.googleapis.com%2Fcss%3Ffamily%3DArchitects%2BDaughter;fontSize=16;curved=1;flowAnimation=0;" parent="1" source="0PAZ69WQfDIx3NiE71XX-53" target="0PAZ69WQfDIx3NiE71XX-86" edge="1">
          <mxGeometry relative="1" as="geometry" />
        </mxCell>
        <mxCell id="zUYzzt8TD7q-zjXkYqAs-1" value="useDispatch" style="edgeLabel;html=1;align=center;verticalAlign=middle;resizable=0;points=[];fontSize=14;fontFamily=Architects Daughter;rotation=0;" parent="0PAZ69WQfDIx3NiE71XX-92" vertex="1" connectable="0">
          <mxGeometry x="-0.035" y="22" relative="1" as="geometry">
            <mxPoint x="-17" y="-192" as="offset" />
          </mxGeometry>
        </mxCell>
        <mxCell id="0PAZ69WQfDIx3NiE71XX-53" value="&lt;font face=&quot;Lucida Console&quot; style=&quot;font-size: 11px;&quot;&gt;Submit&lt;/font&gt;" style="ellipse;whiteSpace=wrap;html=1;aspect=fixed;sketch=1;hachureGap=4;jiggle=2;curveFitting=1;fontFamily=Architects Daughter;fontSource=https%3A%2F%2Ffonts.googleapis.com%2Fcss%3Ffamily%3DArchitects%2BDaughter;fontSize=20;fillColor=#d5e8d4;strokeColor=#82b366;" parent="1" vertex="1">
          <mxGeometry x="426.25" y="287" width="50" height="50" as="geometry" />
        </mxCell>
        <mxCell id="0PAZ69WQfDIx3NiE71XX-54" value="&lt;font style=&quot;font-size: 15px;&quot;&gt;STATE MANAGEMENT&lt;/font&gt;" style="text;html=1;strokeColor=#d6b656;fillColor=#fff2cc;align=center;verticalAlign=middle;whiteSpace=wrap;overflow=hidden;fontSize=20;fontFamily=Lucida Console;" parent="1" vertex="1">
          <mxGeometry x="597.62" y="114.5" width="157.5" height="42.5" as="geometry" />
        </mxCell>
        <mxCell id="7ju1Grx77kzpw6AMeoo_-9" style="edgeStyle=orthogonalEdgeStyle;rounded=0;sketch=1;hachureGap=4;jiggle=2;curveFitting=1;orthogonalLoop=1;jettySize=auto;html=1;fontFamily=Architects Daughter;fontSource=https%3A%2F%2Ffonts.googleapis.com%2Fcss%3Ffamily%3DArchitects%2BDaughter;fontSize=16;" parent="1" source="0PAZ69WQfDIx3NiE71XX-66" target="0PAZ69WQfDIx3NiE71XX-67" edge="1">
          <mxGeometry relative="1" as="geometry" />
        </mxCell>
        <mxCell id="0PAZ69WQfDIx3NiE71XX-66" value="&lt;font style=&quot;font-size: 14px;&quot;&gt;Card&lt;/font&gt;" style="rounded=1;whiteSpace=wrap;html=1;sketch=1;hachureGap=4;jiggle=2;curveFitting=1;fontFamily=Lucida Console;fontSize=14;" parent="1" vertex="1">
          <mxGeometry x="216.25" y="197" width="110" height="40" as="geometry" />
        </mxCell>
        <mxCell id="0PAZ69WQfDIx3NiE71XX-67" value="&lt;p style=&quot;line-height: 120%;&quot;&gt;&lt;font style=&quot;font-size: 12px;&quot;&gt;Local&lt;br style=&quot;&quot;&gt;State&lt;br style=&quot;font-size: 12px;&quot;&gt;&lt;/font&gt;&lt;/p&gt;" style="ellipse;whiteSpace=wrap;html=1;aspect=fixed;sketch=1;hachureGap=4;jiggle=2;curveFitting=1;fontFamily=Lucida Console;fontSize=12;fillColor=#e1d5e7;strokeColor=#9673a6;" parent="1" vertex="1">
          <mxGeometry x="243.75" y="267" width="55" height="55" as="geometry" />
        </mxCell>
        <mxCell id="0PAZ69WQfDIx3NiE71XX-71" value="&lt;font style=&quot;font-size: 15px;&quot;&gt;API&lt;/font&gt;" style="text;html=1;strokeColor=#d6b656;fillColor=#fff2cc;align=center;verticalAlign=middle;whiteSpace=wrap;overflow=hidden;fontSize=20;fontFamily=Lucida Console;" parent="1" vertex="1">
          <mxGeometry x="1001" y="780" width="159" height="40" as="geometry" />
        </mxCell>
        <mxCell id="0PAZ69WQfDIx3NiE71XX-85" value="GeoLocation" style="swimlane;fontStyle=0;childLayout=stackLayout;horizontal=1;startSize=30;horizontalStack=0;resizeParent=1;resizeParentMax=0;resizeLast=0;collapsible=0;marginBottom=0;whiteSpace=wrap;html=1;sketch=1;hachureGap=4;jiggle=2;curveFitting=1;fontFamily=Architects Daughter;fontSource=https%3A%2F%2Ffonts.googleapis.com%2Fcss%3Ffamily%3DArchitects%2BDaughter;fontSize=20;fillColor=#e1d5e7;strokeColor=#9673a6;treeFolding=0;deletable=0;cloneable=1;movable=0;" parent="1" vertex="1">
          <mxGeometry x="570" y="432" width="204.75" height="270" as="geometry">
            <mxRectangle x="689" y="390" width="156" height="39" as="alternateBounds" />
          </mxGeometry>
        </mxCell>
        <mxCell id="0PAZ69WQfDIx3NiE71XX-88" value="Query" style="text;strokeColor=none;fillColor=none;align=left;verticalAlign=middle;spacingLeft=4;spacingRight=4;overflow=hidden;points=[[0,0.5],[1,0.5]];portConstraint=eastwest;rotatable=0;whiteSpace=wrap;html=1;fontSize=13;fontFamily=Lucida Console;" parent="0PAZ69WQfDIx3NiE71XX-85" vertex="1">
          <mxGeometry y="30" width="204.75" height="30" as="geometry" />
        </mxCell>
        <mxCell id="0PAZ69WQfDIx3NiE71XX-87" value="IP" style="text;strokeColor=#666666;fillColor=#f5f5f5;align=left;verticalAlign=middle;spacingLeft=4;spacingRight=4;overflow=hidden;points=[[0,0.5],[1,0.5]];portConstraint=eastwest;rotatable=0;whiteSpace=wrap;html=1;fontSize=13;fontFamily=Lucida Console;fontColor=#333333;" parent="0PAZ69WQfDIx3NiE71XX-85" vertex="1">
          <mxGeometry y="60" width="204.75" height="30" as="geometry" />
        </mxCell>
        <mxCell id="jiT5_RgJSVzoQd3kIDRm-29" value="ISP" style="text;strokeColor=#666666;fillColor=#f5f5f5;align=left;verticalAlign=middle;spacingLeft=4;spacingRight=4;overflow=hidden;points=[[0,0.5],[1,0.5]];portConstraint=eastwest;rotatable=0;whiteSpace=wrap;html=1;fontSize=13;fontFamily=Lucida Console;fontColor=#333333;" parent="0PAZ69WQfDIx3NiE71XX-85" vertex="1">
          <mxGeometry y="90" width="204.75" height="30" as="geometry" />
        </mxCell>
        <mxCell id="jiT5_RgJSVzoQd3kIDRm-12" value="Timezone" style="text;strokeColor=#666666;fillColor=#f5f5f5;align=left;verticalAlign=middle;spacingLeft=4;spacingRight=4;overflow=hidden;points=[[0,0.5],[1,0.5]];portConstraint=eastwest;rotatable=0;whiteSpace=wrap;html=1;fontSize=13;fontFamily=Lucida Console;fontColor=#333333;" parent="0PAZ69WQfDIx3NiE71XX-85" vertex="1">
          <mxGeometry y="120" width="204.75" height="30" as="geometry" />
        </mxCell>
        <mxCell id="jiT5_RgJSVzoQd3kIDRm-41" value="Location" style="text;strokeColor=#666666;fillColor=#f5f5f5;align=left;verticalAlign=middle;spacingLeft=4;spacingRight=4;overflow=hidden;points=[[0,0.5],[1,0.5]];portConstraint=eastwest;rotatable=0;whiteSpace=wrap;html=1;fontSize=13;fontFamily=Lucida Console;fontColor=#333333;" parent="0PAZ69WQfDIx3NiE71XX-85" vertex="1">
          <mxGeometry y="150" width="204.75" height="30" as="geometry" />
        </mxCell>
        <mxCell id="0PAZ69WQfDIx3NiE71XX-89" value="Lat/Long" style="text;strokeColor=#666666;fillColor=#f5f5f5;align=left;verticalAlign=middle;spacingLeft=4;spacingRight=4;overflow=hidden;points=[[0,0.5],[1,0.5]];portConstraint=eastwest;rotatable=0;whiteSpace=wrap;html=1;fontSize=13;fontFamily=Lucida Console;fontColor=#333333;" parent="0PAZ69WQfDIx3NiE71XX-85" vertex="1">
          <mxGeometry y="180" width="204.75" height="30" as="geometry" />
        </mxCell>
        <mxCell id="0PAZ69WQfDIx3NiE71XX-86" value="getGeolocation(Thunk)" style="text;strokeColor=#9673a6;fillColor=#e1d5e7;align=left;verticalAlign=middle;spacingLeft=4;spacingRight=4;overflow=hidden;points=[[0,0.5],[1,0.5]];portConstraint=eastwest;rotatable=0;whiteSpace=wrap;html=1;fontSize=13;fontFamily=Lucida Console;" parent="0PAZ69WQfDIx3NiE71XX-85" vertex="1">
          <mxGeometry y="210" width="204.75" height="30" as="geometry" />
        </mxCell>
        <mxCell id="jiT5_RgJSVzoQd3kIDRm-7" value="getAllData (Thunk)" style="text;strokeColor=#9673a6;fillColor=#e1d5e7;align=left;verticalAlign=middle;spacingLeft=4;spacingRight=4;overflow=hidden;points=[[0,0.5],[1,0.5]];portConstraint=eastwest;rotatable=0;whiteSpace=wrap;html=1;fontSize=13;fontFamily=Lucida Console;" parent="0PAZ69WQfDIx3NiE71XX-85" vertex="1">
          <mxGeometry y="240" width="204.75" height="30" as="geometry" />
        </mxCell>
        <mxCell id="Js1aBli1MJFK1e20tH5a-15" style="edgeStyle=orthogonalEdgeStyle;rounded=0;hachureGap=4;orthogonalLoop=1;jettySize=auto;html=1;entryX=0.75;entryY=0;entryDx=0;entryDy=0;fontFamily=Architects Daughter;fontSource=https%3A%2F%2Ffonts.googleapis.com%2Fcss%3Ffamily%3DArchitects%2BDaughter;fontSize=16;" edge="1" parent="1" source="0PAZ69WQfDIx3NiE71XX-101" target="0PAZ69WQfDIx3NiE71XX-85">
          <mxGeometry relative="1" as="geometry">
            <Array as="points">
              <mxPoint x="1001" y="422" />
              <mxPoint x="729" y="422" />
            </Array>
          </mxGeometry>
        </mxCell>
        <mxCell id="0PAZ69WQfDIx3NiE71XX-101" value="API" style="swimlane;fontStyle=0;childLayout=stackLayout;horizontal=1;startSize=30;horizontalStack=0;resizeParent=1;resizeParentMax=0;resizeLast=0;collapsible=1;marginBottom=0;whiteSpace=wrap;html=1;sketch=1;hachureGap=4;jiggle=2;curveFitting=1;fontFamily=Architects Daughter;fontSource=https%3A%2F%2Ffonts.googleapis.com%2Fcss%3Ffamily%3DArchitects%2BDaughter;fontSize=20;fillColor=#b1ddf0;strokeColor=#10739e;fillStyle=solid;" parent="1" vertex="1">
          <mxGeometry x="949" y="525" width="167" height="240" as="geometry" />
        </mxCell>
        <mxCell id="jiT5_RgJSVzoQd3kIDRm-27" value="API 2" style="text;strokeColor=#10739e;fillColor=#b1ddf0;align=left;verticalAlign=middle;spacingLeft=4;spacingRight=4;overflow=hidden;points=[[0,0.5],[1,0.5]];portConstraint=eastwest;rotatable=0;whiteSpace=wrap;html=1;fontSize=14;fontFamily=Lucida Console;" parent="0PAZ69WQfDIx3NiE71XX-101" vertex="1">
          <mxGeometry y="30" width="167" height="30" as="geometry" />
        </mxCell>
        <mxCell id="jiT5_RgJSVzoQd3kIDRm-31" value="IP" style="text;strokeColor=none;fillColor=none;align=left;verticalAlign=middle;spacingLeft=4;spacingRight=4;overflow=hidden;points=[[0,0.5],[1,0.5]];portConstraint=eastwest;rotatable=0;whiteSpace=wrap;html=1;fontSize=14;fontFamily=Lucida Console;" parent="0PAZ69WQfDIx3NiE71XX-101" vertex="1">
          <mxGeometry y="60" width="167" height="30" as="geometry" />
        </mxCell>
        <mxCell id="0PAZ69WQfDIx3NiE71XX-102" value="API 1" style="text;strokeColor=default;fillColor=#B7E5F7;align=left;verticalAlign=middle;spacingLeft=4;spacingRight=4;overflow=hidden;points=[[0,0.5],[1,0.5]];portConstraint=eastwest;rotatable=0;whiteSpace=wrap;html=1;fontSize=14;fontFamily=Lucida Console;fillStyle=solid;" parent="0PAZ69WQfDIx3NiE71XX-101" vertex="1">
          <mxGeometry y="90" width="167" height="30" as="geometry" />
        </mxCell>
        <mxCell id="jiT5_RgJSVzoQd3kIDRm-30" value="ISP" style="text;strokeColor=none;fillColor=none;align=left;verticalAlign=middle;spacingLeft=4;spacingRight=4;overflow=hidden;points=[[0,0.5],[1,0.5]];portConstraint=eastwest;rotatable=0;whiteSpace=wrap;html=1;fontSize=14;fontFamily=Lucida Console;" parent="0PAZ69WQfDIx3NiE71XX-101" vertex="1">
          <mxGeometry y="120" width="167" height="30" as="geometry" />
        </mxCell>
        <mxCell id="0PAZ69WQfDIx3NiE71XX-103" value="Country" style="text;strokeColor=none;fillColor=none;align=left;verticalAlign=middle;spacingLeft=4;spacingRight=4;overflow=hidden;points=[[0,0.5],[1,0.5]];portConstraint=eastwest;rotatable=0;whiteSpace=wrap;html=1;fontSize=14;fontFamily=Lucida Console;" parent="0PAZ69WQfDIx3NiE71XX-101" vertex="1">
          <mxGeometry y="150" width="167" height="30" as="geometry" />
        </mxCell>
        <mxCell id="0PAZ69WQfDIx3NiE71XX-104" value="Lat/Long" style="text;strokeColor=none;fillColor=none;align=left;verticalAlign=middle;spacingLeft=4;spacingRight=4;overflow=hidden;points=[[0,0.5],[1,0.5]];portConstraint=eastwest;rotatable=0;whiteSpace=wrap;html=1;fontSize=14;fontFamily=Lucida Console;" parent="0PAZ69WQfDIx3NiE71XX-101" vertex="1">
          <mxGeometry y="180" width="167" height="30" as="geometry" />
        </mxCell>
        <mxCell id="0PAZ69WQfDIx3NiE71XX-105" value="City" style="text;strokeColor=none;fillColor=none;align=left;verticalAlign=middle;spacingLeft=4;spacingRight=4;overflow=hidden;points=[[0,0.5],[1,0.5]];portConstraint=eastwest;rotatable=0;whiteSpace=wrap;html=1;fontSize=14;fontFamily=Lucida Console;" parent="0PAZ69WQfDIx3NiE71XX-101" vertex="1">
          <mxGeometry y="210" width="167" height="30" as="geometry" />
        </mxCell>
        <mxCell id="0PAZ69WQfDIx3NiE71XX-123" value="Portfolio&lt;br style=&quot;font-size: 26px;&quot;&gt;Project 5&lt;br style=&quot;font-size: 26px;&quot;&gt;" style="text;strokeColor=default;fillColor=default;html=1;fontSize=26;fontStyle=0;verticalAlign=middle;align=center;fontFamily=Architects Daughter;labelBorderColor=none;textOpacity=90;spacingTop=1;rounded=0;glass=0;shadow=0;imageAspect=1;absoluteArcSize=0;direction=east;dashed=1;fontSource=https%3A%2F%2Ffonts.googleapis.com%2Fcss%3Ffamily%3DArchitects%2BDaughter;" parent="1" vertex="1">
          <mxGeometry x="355" y="13" width="360" height="65" as="geometry" />
        </mxCell>
        <mxCell id="7ju1Grx77kzpw6AMeoo_-4" style="edgeStyle=orthogonalEdgeStyle;rounded=0;hachureGap=4;orthogonalLoop=1;jettySize=auto;html=1;fontFamily=Architects Daughter;fontSource=https%3A%2F%2Ffonts.googleapis.com%2Fcss%3Ffamily%3DArchitects%2BDaughter;fontSize=16;strokeColor=default;" parent="1" source="7ju1Grx77kzpw6AMeoo_-3" target="0PAZ69WQfDIx3NiE71XX-85" edge="1">
          <mxGeometry relative="1" as="geometry" />
        </mxCell>
        <mxCell id="7ju1Grx77kzpw6AMeoo_-3" value="Store" style="rounded=1;whiteSpace=wrap;html=1;sketch=1;hachureGap=4;jiggle=2;curveFitting=1;fontFamily=Lucida Console;fontSize=14;" parent="1" vertex="1">
          <mxGeometry x="597.62" y="169" width="160" height="40" as="geometry" />
        </mxCell>
        <mxCell id="7ju1Grx77kzpw6AMeoo_-10" style="edgeStyle=orthogonalEdgeStyle;rounded=0;sketch=1;hachureGap=4;jiggle=2;curveFitting=1;orthogonalLoop=1;jettySize=auto;html=1;exitX=0.5;exitY=1;exitDx=0;exitDy=0;fontFamily=Architects Daughter;fontSource=https%3A%2F%2Ffonts.googleapis.com%2Fcss%3Ffamily%3DArchitects%2BDaughter;fontSize=16;" parent="1" source="7ju1Grx77kzpw6AMeoo_-7" target="7ju1Grx77kzpw6AMeoo_-8" edge="1">
          <mxGeometry relative="1" as="geometry" />
        </mxCell>
        <mxCell id="7ju1Grx77kzpw6AMeoo_-7" value="&lt;font style=&quot;font-size: 14px;&quot;&gt;Map&lt;/font&gt;" style="rounded=1;whiteSpace=wrap;html=1;sketch=1;hachureGap=4;jiggle=2;curveFitting=1;fontFamily=Lucida Console;fontSize=14;" parent="1" vertex="1">
          <mxGeometry x="88.75" y="197" width="110" height="40" as="geometry" />
        </mxCell>
        <mxCell id="7ju1Grx77kzpw6AMeoo_-8" value="&lt;p style=&quot;line-height: 120%;&quot;&gt;&lt;font style=&quot;font-size: 12px;&quot;&gt;Local&lt;br style=&quot;&quot;&gt;State&lt;br style=&quot;font-size: 12px;&quot;&gt;&lt;/font&gt;&lt;/p&gt;" style="ellipse;whiteSpace=wrap;html=1;aspect=fixed;sketch=1;hachureGap=4;jiggle=2;curveFitting=1;fontFamily=Lucida Console;fontSize=12;fillColor=#e1d5e7;strokeColor=#9673a6;" parent="1" vertex="1">
          <mxGeometry x="116.25" y="267" width="55" height="55" as="geometry" />
        </mxCell>
        <mxCell id="7ju1Grx77kzpw6AMeoo_-11" style="edgeStyle=orthogonalEdgeStyle;rounded=0;hachureGap=4;orthogonalLoop=1;jettySize=auto;html=1;entryX=0.5;entryY=1;entryDx=0;entryDy=0;fontFamily=Architects Daughter;fontSource=https%3A%2F%2Ffonts.googleapis.com%2Fcss%3Ffamily%3DArchitects%2BDaughter;fontSize=16;curved=1;" parent="1" source="0PAZ69WQfDIx3NiE71XX-89" target="7ju1Grx77kzpw6AMeoo_-8" edge="1">
          <mxGeometry relative="1" as="geometry" />
        </mxCell>
        <mxCell id="7ju1Grx77kzpw6AMeoo_-12" value="&lt;font style=&quot;font-size: 14px;&quot;&gt;useSelector&lt;/font&gt;" style="edgeLabel;html=1;align=center;verticalAlign=middle;resizable=0;points=[];fontSize=20;fontFamily=Architects Daughter;fontStyle=0" parent="7ju1Grx77kzpw6AMeoo_-11" vertex="1" connectable="0">
          <mxGeometry x="-0.0606" y="-33" relative="1" as="geometry">
            <mxPoint x="-93" y="-147" as="offset" />
          </mxGeometry>
        </mxCell>
        <mxCell id="jiT5_RgJSVzoQd3kIDRm-16" style="edgeStyle=orthogonalEdgeStyle;rounded=0;hachureGap=4;orthogonalLoop=1;jettySize=auto;html=1;entryX=0;entryY=0.5;entryDx=0;entryDy=0;fontFamily=Architects Daughter;fontSource=https%3A%2F%2Ffonts.googleapis.com%2Fcss%3Ffamily%3DArchitects%2BDaughter;fontSize=16;curved=1;" parent="1" source="BipnVfe6FMpguTM1eQNc-4" target="jiT5_RgJSVzoQd3kIDRm-7" edge="1">
          <mxGeometry relative="1" as="geometry" />
        </mxCell>
        <mxCell id="BipnVfe6FMpguTM1eQNc-6" value="&lt;font style=&quot;font-size: 14px;&quot;&gt;useDispatch&lt;/font&gt;" style="edgeLabel;html=1;align=center;verticalAlign=middle;resizable=0;points=[];fontSize=20;fontFamily=Architects Daughter;" parent="jiT5_RgJSVzoQd3kIDRm-16" vertex="1" connectable="0">
          <mxGeometry x="-0.3537" y="-2" relative="1" as="geometry">
            <mxPoint x="19" y="-2" as="offset" />
          </mxGeometry>
        </mxCell>
        <mxCell id="jiT5_RgJSVzoQd3kIDRm-1" value="&lt;font style=&quot;font-size: 14px;&quot;&gt;Home&lt;/font&gt;" style="rounded=1;whiteSpace=wrap;html=1;hachureGap=4;fontFamily=Lucida Console;fontSize=14;" parent="1" vertex="1">
          <mxGeometry x="39" y="614" width="159.75" height="62" as="geometry" />
        </mxCell>
        <mxCell id="jiT5_RgJSVzoQd3kIDRm-3" value="&lt;font style=&quot;font-size: 15px;&quot;&gt;PAGES&lt;/font&gt;" style="text;html=1;strokeColor=#d6b656;fillColor=#fff2cc;align=center;verticalAlign=middle;whiteSpace=wrap;overflow=hidden;fontSize=20;fontFamily=Lucida Console;" parent="1" vertex="1">
          <mxGeometry x="39" y="702" width="157.5" height="42.5" as="geometry" />
        </mxCell>
        <mxCell id="jiT5_RgJSVzoQd3kIDRm-11" value="" style="shape=curlyBracket;whiteSpace=wrap;html=1;rounded=1;flipH=1;labelPosition=right;verticalLabelPosition=middle;align=left;verticalAlign=middle;sketch=1;hachureGap=4;jiggle=2;curveFitting=1;fontFamily=Architects Daughter;fontSource=https%3A%2F%2Ffonts.googleapis.com%2Fcss%3Ffamily%3DArchitects%2BDaughter;fontSize=20;rotation=-90;" parent="1" vertex="1">
          <mxGeometry x="267" y="34.75" width="20" height="284.5" as="geometry" />
        </mxCell>
        <mxCell id="jiT5_RgJSVzoQd3kIDRm-18" value="useDispatch" style="edgeLabel;html=1;align=center;verticalAlign=middle;resizable=0;points=[];fontSize=14;fontFamily=Architects Daughter;rotation=0;" parent="1" vertex="1" connectable="0">
          <mxGeometry x="326.2470588235293" y="377" as="geometry">
            <mxPoint x="68" y="28" as="offset" />
          </mxGeometry>
        </mxCell>
        <mxCell id="jiT5_RgJSVzoQd3kIDRm-46" value="" style="shape=curlyBracket;whiteSpace=wrap;html=1;rounded=1;labelPosition=left;verticalLabelPosition=middle;align=right;verticalAlign=middle;hachureGap=4;fontFamily=Architects Daughter;fontSource=https%3A%2F%2Ffonts.googleapis.com%2Fcss%3Ffamily%3DArchitects%2BDaughter;fontSize=20;" parent="1" vertex="1">
          <mxGeometry x="550" y="510" width="20" height="104" as="geometry" />
        </mxCell>
        <mxCell id="jiT5_RgJSVzoQd3kIDRm-47" style="edgeStyle=orthogonalEdgeStyle;rounded=0;hachureGap=4;orthogonalLoop=1;jettySize=auto;html=1;entryX=0.1;entryY=0.5;entryDx=0;entryDy=0;entryPerimeter=0;fontFamily=Architects Daughter;fontSource=https%3A%2F%2Ffonts.googleapis.com%2Fcss%3Ffamily%3DArchitects%2BDaughter;fontSize=16;curved=1;startArrow=classic;startFill=1;endArrow=none;endFill=0;" parent="1" target="jiT5_RgJSVzoQd3kIDRm-46" edge="1">
          <mxGeometry relative="1" as="geometry">
            <Array as="points">
              <mxPoint x="260" y="524" />
              <mxPoint x="552" y="524" />
            </Array>
            <mxPoint x="260" y="319.25" as="sourcePoint" />
            <mxPoint x="540.75" y="559.25" as="targetPoint" />
          </mxGeometry>
        </mxCell>
        <mxCell id="jiT5_RgJSVzoQd3kIDRm-48" value="&lt;font style=&quot;font-size: 14px;&quot;&gt;useSelector&lt;/font&gt;" style="edgeLabel;html=1;align=center;verticalAlign=middle;resizable=0;points=[];fontSize=20;fontFamily=Architects Daughter;" parent="jiT5_RgJSVzoQd3kIDRm-47" vertex="1" connectable="0">
          <mxGeometry x="0.174" y="39" relative="1" as="geometry">
            <mxPoint x="-45" y="-1" as="offset" />
          </mxGeometry>
        </mxCell>
        <mxCell id="BipnVfe6FMpguTM1eQNc-5" value="" style="edgeStyle=orthogonalEdgeStyle;rounded=0;hachureGap=4;orthogonalLoop=1;jettySize=auto;html=1;entryX=0;entryY=0.5;entryDx=0;entryDy=0;fontFamily=Architects Daughter;fontSource=https%3A%2F%2Ffonts.googleapis.com%2Fcss%3Ffamily%3DArchitects%2BDaughter;fontSize=16;curved=1;" parent="1" source="jiT5_RgJSVzoQd3kIDRm-1" target="BipnVfe6FMpguTM1eQNc-4" edge="1">
          <mxGeometry relative="1" as="geometry">
            <mxPoint x="122" y="652" as="sourcePoint" />
            <mxPoint x="575" y="697" as="targetPoint" />
          </mxGeometry>
        </mxCell>
        <mxCell id="BipnVfe6FMpguTM1eQNc-4" value="&lt;font style=&quot;font-size: 12px;&quot;&gt;UseEffect&lt;/font&gt;" style="shape=or;whiteSpace=wrap;html=1;sketch=1;hachureGap=4;jiggle=2;curveFitting=1;fontFamily=Lucida Console;fontSize=12;fillColor=#bac8d3;strokeColor=#23445d;fontStyle=0" parent="1" vertex="1">
          <mxGeometry x="234" y="665.25" width="94" height="49.75" as="geometry" />
        </mxCell>
        <mxCell id="Js1aBli1MJFK1e20tH5a-4" value="Yes" style="edgeStyle=orthogonalEdgeStyle;rounded=0;hachureGap=4;orthogonalLoop=1;jettySize=auto;html=1;fontFamily=Architects Daughter;fontSource=https%3A%2F%2Ffonts.googleapis.com%2Fcss%3Ffamily%3DArchitects%2BDaughter;fontSize=16;curved=1;" edge="1" parent="1" source="Js1aBli1MJFK1e20tH5a-1">
          <mxGeometry x="-0.7968" y="-11" relative="1" as="geometry">
            <mxPoint x="663" y="728" as="targetPoint" />
            <Array as="points">
              <mxPoint x="872" y="832" />
              <mxPoint x="664" y="832" />
            </Array>
            <mxPoint as="offset" />
          </mxGeometry>
        </mxCell>
        <mxCell id="Js1aBli1MJFK1e20tH5a-1" value="Local&lt;br&gt;Storage" style="rhombus;whiteSpace=wrap;html=1;fontFamily=Lucida Console;fillColor=#fff2cc;strokeColor=#d6b656;sketch=1;hachureGap=4;jiggle=2;curveFitting=1;" vertex="1" parent="1">
          <mxGeometry x="832" y="712" width="80" height="80" as="geometry" />
        </mxCell>
        <mxCell id="Js1aBli1MJFK1e20tH5a-2" style="edgeStyle=orthogonalEdgeStyle;rounded=0;hachureGap=4;orthogonalLoop=1;jettySize=auto;html=1;entryX=0;entryY=0.5;entryDx=0;entryDy=0;fontFamily=Architects Daughter;fontSource=https%3A%2F%2Ffonts.googleapis.com%2Fcss%3Ffamily%3DArchitects%2BDaughter;fontSize=16;curved=1;" edge="1" parent="1" source="jiT5_RgJSVzoQd3kIDRm-7" target="Js1aBli1MJFK1e20tH5a-1">
          <mxGeometry relative="1" as="geometry" />
        </mxCell>
        <mxCell id="Js1aBli1MJFK1e20tH5a-3" value="No" style="edgeStyle=orthogonalEdgeStyle;rounded=0;hachureGap=4;orthogonalLoop=1;jettySize=auto;html=1;entryX=-0.006;entryY=0.042;entryDx=0;entryDy=0;entryPerimeter=0;fontFamily=Architects Daughter;fontSource=https%3A%2F%2Ffonts.googleapis.com%2Fcss%3Ffamily%3DArchitects%2BDaughter;fontSize=16;curved=1;" edge="1" parent="1" source="Js1aBli1MJFK1e20tH5a-1" target="0PAZ69WQfDIx3NiE71XX-101">
          <mxGeometry x="-0.781" relative="1" as="geometry">
            <Array as="points">
              <mxPoint x="871" y="535" />
            </Array>
            <mxPoint as="offset" />
          </mxGeometry>
        </mxCell>
        <mxCell id="Js1aBli1MJFK1e20tH5a-8" style="rounded=0;hachureGap=4;orthogonalLoop=1;jettySize=auto;html=1;fontFamily=Architects Daughter;fontSource=https%3A%2F%2Ffonts.googleapis.com%2Fcss%3Ffamily%3DArchitects%2BDaughter;fontSize=16;entryX=0;entryY=0.5;entryDx=0;entryDy=0;" edge="1" parent="1" target="0PAZ69WQfDIx3NiE71XX-102">
          <mxGeometry relative="1" as="geometry">
            <mxPoint x="780" y="665.2503225806452" as="sourcePoint" />
            <mxPoint x="1001" y="637" as="targetPoint" />
          </mxGeometry>
        </mxCell>
        <mxCell id="Js1aBli1MJFK1e20tH5a-14" value="&lt;font style=&quot;font-size: 15px;&quot;&gt;API&lt;/font&gt;" style="text;html=1;strokeColor=#d6b656;fillColor=#fff2cc;align=center;verticalAlign=middle;whiteSpace=wrap;overflow=hidden;fontSize=20;fontFamily=Lucida Console;" vertex="1" parent="1">
          <mxGeometry x="949" y="780" width="159" height="40" as="geometry" />
        </mxCell>
      </root>
    </mxGraphModel>
  </diagram>
  <diagram id="Z9HIsEeMo0-sL65cdbxl" name="STEPS">
    <mxGraphModel dx="1426" dy="751" grid="1" gridSize="10" guides="1" tooltips="1" connect="1" arrows="1" fold="1" page="1" pageScale="1" pageWidth="850" pageHeight="1100" math="0" shadow="0">
      <root>
        <mxCell id="0" />
        <mxCell id="1" parent="0" />
        <mxCell id="a2oZkhTZi72h_vZ4XKpd-3" value="" style="edgeStyle=orthogonalEdgeStyle;rounded=0;sketch=1;hachureGap=4;jiggle=2;curveFitting=1;orthogonalLoop=1;jettySize=auto;html=1;fontFamily=Architects Daughter;fontSource=https%3A%2F%2Ffonts.googleapis.com%2Fcss%3Ffamily%3DArchitects%2BDaughter;fontSize=16;" parent="1" source="a2oZkhTZi72h_vZ4XKpd-1" target="a2oZkhTZi72h_vZ4XKpd-2" edge="1">
          <mxGeometry relative="1" as="geometry" />
        </mxCell>
        <mxCell id="a2oZkhTZi72h_vZ4XKpd-1" value="Static Interface" style="rounded=1;whiteSpace=wrap;html=1;sketch=1;hachureGap=4;jiggle=2;curveFitting=1;fontFamily=Lucida Console;fontSize=14;" parent="1" vertex="1">
          <mxGeometry x="172.5" y="120" width="110" height="40" as="geometry" />
        </mxCell>
        <mxCell id="a2oZkhTZi72h_vZ4XKpd-5" value="" style="edgeStyle=orthogonalEdgeStyle;rounded=0;sketch=1;hachureGap=4;jiggle=2;curveFitting=1;orthogonalLoop=1;jettySize=auto;html=1;fontFamily=Architects Daughter;fontSource=https%3A%2F%2Ffonts.googleapis.com%2Fcss%3Ffamily%3DArchitects%2BDaughter;fontSize=16;" parent="1" source="a2oZkhTZi72h_vZ4XKpd-2" target="a2oZkhTZi72h_vZ4XKpd-4" edge="1">
          <mxGeometry relative="1" as="geometry" />
        </mxCell>
        <mxCell id="a2oZkhTZi72h_vZ4XKpd-2" value="HTML and CSS" style="whiteSpace=wrap;html=1;fontSize=14;fontFamily=Lucida Console;rounded=1;sketch=1;hachureGap=4;jiggle=2;curveFitting=1;" parent="1" vertex="1">
          <mxGeometry x="165" y="200" width="125" height="40" as="geometry" />
        </mxCell>
        <mxCell id="a2oZkhTZi72h_vZ4XKpd-4" value="State&lt;br&gt;Management" style="whiteSpace=wrap;html=1;fontSize=14;fontFamily=Lucida Console;rounded=1;sketch=1;hachureGap=4;jiggle=2;curveFitting=1;" parent="1" vertex="1">
          <mxGeometry x="167.5" y="320" width="120" height="60" as="geometry" />
        </mxCell>
        <mxCell id="2l72cXGVt6e6NzwUXkGn-4" value="" style="edgeStyle=orthogonalEdgeStyle;sketch=1;hachureGap=4;jiggle=2;curveFitting=1;orthogonalLoop=1;jettySize=auto;html=1;fontFamily=Architects Daughter;fontSource=https%3A%2F%2Ffonts.googleapis.com%2Fcss%3Ffamily%3DArchitects%2BDaughter;fontSize=16;" parent="1" source="2l72cXGVt6e6NzwUXkGn-1" target="2l72cXGVt6e6NzwUXkGn-3" edge="1">
          <mxGeometry relative="1" as="geometry" />
        </mxCell>
        <mxCell id="2l72cXGVt6e6NzwUXkGn-1" value="Modal" style="whiteSpace=wrap;html=1;fontSize=14;fontFamily=Lucida Console;rounded=1;sketch=1;hachureGap=4;jiggle=2;curveFitting=1;" parent="1" vertex="1">
          <mxGeometry x="470" y="300" width="120" height="60" as="geometry" />
        </mxCell>
        <mxCell id="2l72cXGVt6e6NzwUXkGn-5" style="edgeStyle=orthogonalEdgeStyle;sketch=1;hachureGap=4;jiggle=2;curveFitting=1;orthogonalLoop=1;jettySize=auto;html=1;fontFamily=Architects Daughter;fontSource=https%3A%2F%2Ffonts.googleapis.com%2Fcss%3Ffamily%3DArchitects%2BDaughter;fontSize=16;" parent="1" source="2l72cXGVt6e6NzwUXkGn-3" target="2l72cXGVt6e6NzwUXkGn-6" edge="1">
          <mxGeometry relative="1" as="geometry">
            <mxPoint x="650" y="460" as="targetPoint" />
          </mxGeometry>
        </mxCell>
        <mxCell id="2l72cXGVt6e6NzwUXkGn-3" value="" style="rhombus;whiteSpace=wrap;html=1;fontSize=14;fontFamily=Lucida Console;rounded=1;sketch=1;hachureGap=4;jiggle=2;curveFitting=1;fillColor=#fff2cc;strokeColor=#d6b656;" parent="1" vertex="1">
          <mxGeometry x="490" y="420" width="80" height="80" as="geometry" />
        </mxCell>
        <mxCell id="2l72cXGVt6e6NzwUXkGn-6" value="cannot be&amp;nbsp;&lt;br&gt;empty" style="whiteSpace=wrap;html=1;fontSize=14;fontFamily=Lucida Console;rounded=1;sketch=1;hachureGap=4;jiggle=2;curveFitting=1;" parent="1" vertex="1">
          <mxGeometry x="470" y="540" width="120" height="60" as="geometry" />
        </mxCell>
      </root>
    </mxGraphModel>
  </diagram>
</mxfile>
